<svg width="367" height="367" viewBox="0 0 367 367" fill="none" xmlns="http://www.w3.org/2000/svg">
<g filter="url(#filter0_d_585_3)">
<path fill-rule="evenodd" clip-rule="evenodd" d="M182.057 59.6885L182.057 74.1611L184.057 74.1611L184.057 60.187C193.217 59.6322 200.451 52.0362 200.43 42.7298C200.407 33.0483 192.541 25.1819 182.86 25.1596C173.178 25.1374 165.348 32.9677 165.37 42.6492C165.371 43.2015 165.82 43.6502 166.372 43.6515C166.925 43.6528 167.371 43.2061 167.37 42.6538C167.35 34.0769 174.287 27.1399 182.864 27.1596C191.441 27.1793 198.41 34.1483 198.43 42.7252C198.449 51.3021 191.512 58.2391 182.936 58.2194C182.383 58.2181 181.937 58.6648 181.938 59.2171C181.938 59.3874 181.981 59.5479 182.057 59.6885Z" fill="#565656"/>
<path d="M182.057 74.1611L180.557 74.1611C180.557 74.9896 181.228 75.6611 182.057 75.6611L182.057 74.1611ZM182.057 59.6885L183.557 59.6885C183.557 59.4409 183.495 59.1972 183.378 58.9791L182.057 59.6885ZM184.057 74.1611L184.057 75.6611C184.454 75.6611 184.836 75.5031 185.117 75.2218C185.399 74.9405 185.557 74.559 185.557 74.1611L184.057 74.1611ZM184.057 60.187L183.966 58.6897C183.174 58.7377 182.557 59.3938 182.557 60.187L184.057 60.187ZM200.43 42.7298L198.93 42.7333L200.43 42.7298ZM182.86 25.1596L182.856 26.6596L182.856 26.6596L182.86 25.1596ZM165.37 42.6492L163.87 42.6527L163.87 42.6527L165.37 42.6492ZM167.37 42.6538L168.87 42.6504L168.87 42.6504L167.37 42.6538ZM182.864 27.1596L182.868 25.6596L182.868 25.6596L182.864 27.1596ZM198.43 42.7252L196.93 42.7287L198.43 42.7252ZM182.936 58.2194L182.932 59.7194L182.936 58.2194ZM181.938 59.2171L183.438 59.2136L183.438 59.2136L181.938 59.2171ZM183.557 74.1611L183.557 59.6885L180.557 59.6885L180.557 74.1611L183.557 74.1611ZM184.057 72.6611L182.057 72.6611L182.057 75.6611L184.057 75.6611L184.057 72.6611ZM182.557 60.187L182.557 74.1611L185.557 74.1611L185.557 60.187L182.557 60.187ZM198.93 42.7333C198.949 51.2405 192.337 58.1827 183.966 58.6897L184.147 61.6842C194.096 61.0817 201.953 52.832 201.93 42.7264L198.93 42.7333ZM182.856 26.6596C191.712 26.68 198.909 33.8775 198.93 42.7333L201.93 42.7264C201.906 32.2191 193.37 23.6838 182.863 23.6596L182.856 26.6596ZM166.87 42.6458C166.85 33.7954 174.006 26.6393 182.856 26.6596L182.863 23.6596C172.35 23.6355 163.846 32.1401 163.87 42.6527L166.87 42.6458ZM166.376 42.1515C166.649 42.1521 166.869 42.3723 166.87 42.6458L163.87 42.6527C163.873 44.0307 164.991 45.1483 166.369 45.1515L166.376 42.1515ZM165.87 42.6572C165.869 42.3784 166.097 42.1509 166.376 42.1515L166.369 45.1515C167.752 45.1547 168.873 44.0337 168.87 42.6504L165.87 42.6572ZM182.868 25.6596C173.46 25.638 165.848 33.2492 165.87 42.6573L168.87 42.6504C168.852 34.9046 175.115 28.6418 182.861 28.6596L182.868 25.6596ZM199.93 42.7218C199.908 33.3191 192.27 25.6812 182.868 25.6596L182.861 28.6596C190.612 28.6774 196.912 34.9775 196.93 42.7287L199.93 42.7218ZM182.932 59.7194C192.34 59.741 199.951 52.1298 199.93 42.7218L196.93 42.7287C196.948 50.4745 190.685 56.7372 182.939 56.7194L182.932 59.7194ZM183.438 59.2136C183.438 59.4925 183.211 59.72 182.932 59.7194L182.939 56.7194C181.556 56.7162 180.435 57.8371 180.438 59.2205L183.438 59.2136ZM183.378 58.9791C183.416 59.0499 183.438 59.1311 183.438 59.2136L180.438 59.2205C180.439 59.6437 180.546 60.0459 180.735 60.3978L183.378 58.9791Z" fill="#565656"/>
</g>
<g filter="url(#filter1_d_585_3)">
<mask id="path-3-outside-1_585_3" maskUnits="userSpaceOnUse" x="-3.2978" y="-3.813" width="374.059" height="374.059" fill="black">
<rect fill="white" x="-3.2978" y="-3.813" width="374.059" height="374.059"/>
<path fill-rule="evenodd" clip-rule="evenodd" d="M205.307 85.823L339.381 163.231C350.614 169.716 354.463 184.08 347.978 195.314C341.492 206.547 327.128 210.396 315.894 203.91L187.285 129.658L195.896 124.686C209.104 117.061 213.629 100.173 206.004 86.9654C205.779 86.5771 205.547 86.1962 205.307 85.823ZM182.42 73.1565C187.576 72.8668 192.873 74.0251 197.679 76.8003L341.381 159.766C354.528 167.357 359.032 184.167 351.442 197.314C343.852 210.46 327.041 214.965 313.894 207.374L183.285 131.967L53.292 207.018C40.0848 214.644 23.1969 210.118 15.5717 196.911C7.9466 183.704 12.4717 166.816 25.6789 159.191L168.283 76.8583C172.742 74.2841 177.62 73.0947 182.42 73.1565ZM179.285 129.658L51.292 203.554C39.998 210.075 25.5564 206.205 19.0359 194.911C12.5153 183.617 16.3849 169.176 27.6789 162.655L160.765 85.8176C160.548 86.1591 160.337 86.5069 160.132 86.861C152.542 100.008 157.046 116.818 170.193 124.408L179.285 129.658ZM183.285 127.348L172.193 120.944C160.96 114.459 157.111 100.094 163.596 88.861C167.686 81.7772 174.909 77.6299 182.504 77.1589C190.511 77.307 198.244 81.5252 202.539 88.9654C209.06 100.259 205.19 114.701 193.896 121.222L183.285 127.348Z"/>
</mask>
<path fill-rule="evenodd" clip-rule="evenodd" d="M205.307 85.823L339.381 163.231C350.614 169.716 354.463 184.08 347.978 195.314C341.492 206.547 327.128 210.396 315.894 203.91L187.285 129.658L195.896 124.686C209.104 117.061 213.629 100.173 206.004 86.9654C205.779 86.5771 205.547 86.1962 205.307 85.823ZM182.42 73.1565C187.576 72.8668 192.873 74.0251 197.679 76.8003L341.381 159.766C354.528 167.357 359.032 184.167 351.442 197.314C343.852 210.46 327.041 214.965 313.894 207.374L183.285 131.967L53.292 207.018C40.0848 214.644 23.1969 210.118 15.5717 196.911C7.9466 183.704 12.4717 166.816 25.6789 159.191L168.283 76.8583C172.742 74.2841 177.62 73.0947 182.42 73.1565ZM179.285 129.658L51.292 203.554C39.998 210.075 25.5564 206.205 19.0359 194.911C12.5153 183.617 16.3849 169.176 27.6789 162.655L160.765 85.8176C160.548 86.1591 160.337 86.5069 160.132 86.861C152.542 100.008 157.046 116.818 170.193 124.408L179.285 129.658ZM183.285 127.348L172.193 120.944C160.96 114.459 157.111 100.094 163.596 88.861C167.686 81.7772 174.909 77.6299 182.504 77.1589C190.511 77.307 198.244 81.5252 202.539 88.9654C209.06 100.259 205.19 114.701 193.896 121.222L183.285 127.348Z" fill="#565656"/>
<path d="M339.381 163.231L338.381 164.963L339.381 163.231ZM205.307 85.823L206.307 84.0909L203.625 86.9044L205.307 85.823ZM347.978 195.314L349.71 196.314L349.71 196.314L347.978 195.314ZM315.894 203.91L314.894 205.642L314.895 205.642L315.894 203.91ZM187.285 129.658L186.285 127.925L183.285 129.658L186.285 131.39L187.285 129.658ZM195.896 124.686L196.896 126.418L195.896 124.686ZM206.004 86.9654L204.272 87.9654L206.004 86.9654ZM197.679 76.8003L196.679 78.5323L197.679 76.8003ZM182.42 73.1565L182.394 75.1564L182.463 75.1573L182.532 75.1534L182.42 73.1565ZM341.381 159.766L340.381 161.498L341.381 159.766ZM351.442 197.314L353.174 198.314L353.174 198.314L351.442 197.314ZM313.894 207.374L314.894 205.642L314.894 205.642L313.894 207.374ZM183.285 131.967L184.285 130.235L183.285 129.658L182.285 130.235L183.285 131.967ZM53.292 207.018L54.292 208.75L53.292 207.018ZM15.5717 196.911L13.8397 197.911L15.5717 196.911ZM25.6789 159.191L24.6789 157.459L25.6789 159.191ZM168.283 76.8583L169.283 78.5904L168.283 76.8583ZM51.292 203.554L52.292 205.286L51.292 203.554ZM179.285 129.658L180.285 131.39L183.285 129.658L180.285 127.925L179.285 129.658ZM19.0359 194.911L20.7679 193.911L19.0359 194.911ZM27.6789 162.655L28.6789 164.387L27.6789 162.655ZM160.765 85.8176L162.452 86.8922L159.765 84.0855L160.765 85.8176ZM160.132 86.861L161.864 87.861L161.864 87.861L160.132 86.861ZM170.193 124.408L169.193 126.14L170.193 124.408ZM172.193 120.944L171.193 122.676L172.193 120.944ZM183.285 127.348L182.285 129.08L183.285 129.658L184.285 129.08L183.285 127.348ZM163.596 88.861L165.328 89.861L163.596 88.861ZM182.504 77.1589L182.541 75.1593L182.461 75.1578L182.38 75.1628L182.504 77.1589ZM202.539 88.9654L200.807 89.9654L202.539 88.9654ZM193.896 121.222L194.896 122.954L193.896 121.222ZM340.381 161.498L206.307 84.0909L204.307 87.555L338.381 164.963L340.381 161.498ZM349.71 196.314C356.748 184.124 352.571 168.536 340.381 161.498L338.381 164.963C348.658 170.896 352.179 184.037 346.246 194.314L349.71 196.314ZM314.895 205.642C327.084 212.68 342.672 208.504 349.71 196.314L346.246 194.314C340.312 204.59 327.171 208.112 316.894 202.178L314.895 205.642ZM186.285 131.39L314.894 205.642L316.894 202.178L188.285 127.925L186.285 131.39ZM194.896 122.954L186.285 127.925L188.285 131.39L196.896 126.418L194.896 122.954ZM204.272 87.9654C211.344 100.216 207.147 115.881 194.896 122.954L196.896 126.418C211.06 118.24 215.913 100.129 207.736 85.9654L204.272 87.9654ZM203.625 86.9044C203.848 87.2509 204.063 87.6046 204.272 87.9654L207.736 85.9654C207.496 85.5495 207.247 85.1416 206.99 84.7416L203.625 86.9044ZM198.679 75.0682C193.525 72.0926 187.841 70.8488 182.307 71.1597L182.532 75.1534C187.312 74.8848 192.22 75.9576 196.679 78.5323L198.679 75.0682ZM342.381 158.034L198.679 75.0682L196.679 78.5323L340.381 161.498L342.381 158.034ZM353.174 198.314C361.316 184.21 356.484 166.177 342.381 158.034L340.381 161.498C352.571 168.536 356.748 184.124 349.71 196.314L353.174 198.314ZM312.894 209.106C326.998 217.249 345.031 212.417 353.174 198.314L349.71 196.314C342.672 208.504 327.084 212.68 314.894 205.642L312.894 209.106ZM182.285 133.699L312.895 209.106L314.894 205.642L184.285 130.235L182.285 133.699ZM182.285 130.235L52.292 205.286L54.292 208.75L184.285 133.699L182.285 130.235ZM52.292 205.286C40.0414 212.359 24.3767 208.162 17.3038 195.911L13.8397 197.911C22.0172 212.075 40.1283 216.928 54.292 208.75L52.292 205.286ZM17.3038 195.911C10.2309 183.661 14.4283 167.996 26.6789 160.923L24.6789 157.459C10.5151 165.636 5.66226 183.748 13.8397 197.911L17.3038 195.911ZM26.6789 160.923L169.283 78.5904L167.283 75.1263L24.6789 157.459L26.6789 160.923ZM169.283 78.5904C173.422 76.201 177.944 75.099 182.394 75.1564L182.445 71.1567C177.296 71.0903 172.062 72.3673 167.283 75.1263L169.283 78.5904ZM52.292 205.286L180.285 131.39L178.285 127.925L50.292 201.822L52.292 205.286ZM17.3038 195.911C24.3767 208.162 40.0414 212.359 52.292 205.286L50.292 201.822C39.9546 207.791 26.7362 204.249 20.7679 193.911L17.3038 195.911ZM26.6789 160.923C14.4283 167.996 10.2309 183.661 17.3038 195.911L20.7679 193.911C14.7996 183.574 18.3415 170.355 28.6789 164.387L26.6789 160.923ZM159.765 84.0855L26.6789 160.923L28.6789 164.387L161.765 87.5496L159.765 84.0855ZM159.079 84.7429C158.845 85.109 158.619 85.4817 158.4 85.8611L161.864 87.861C162.054 87.5321 162.25 87.2092 162.452 86.8922L159.079 84.7429ZM158.4 85.861C150.258 99.9642 155.09 117.998 169.193 126.14L171.193 122.676C159.003 115.638 154.826 100.051 161.864 87.861L158.4 85.861ZM169.193 126.14L178.285 131.39L180.285 127.925L171.193 122.676L169.193 126.14ZM171.193 122.676L182.285 129.08L184.285 125.616L173.193 119.212L171.193 122.676ZM161.864 87.861C154.826 100.051 159.003 115.638 171.193 122.676L173.193 119.212C162.916 113.279 159.395 100.138 165.328 89.861L161.864 87.861ZM182.38 75.1628C174.145 75.6735 166.303 80.1723 161.864 87.861L165.328 89.861C169.069 83.3821 175.674 79.5863 182.628 79.1551L182.38 75.1628ZM204.272 87.9654C199.611 79.8929 191.22 75.3198 182.541 75.1593L182.467 79.1586C189.802 79.2942 196.877 83.1574 200.807 89.9654L204.272 87.9654ZM194.896 122.954C207.147 115.881 211.344 100.216 204.272 87.9654L200.807 89.9654C206.776 100.303 203.234 113.521 192.896 119.49L194.896 122.954ZM184.285 129.08L194.896 122.954L192.896 119.49L182.285 125.616L184.285 129.08Z" fill="#565656" mask="url(#path-3-outside-1_585_3)"/>
</g>
<circle cx="154.107" cy="199.761" r="12.8138" fill="url(#paint0_linear_585_3)"/>
<circle cx="154.107" cy="199.761" r="12.8138" fill="black" fill-opacity="0.2"/>
<circle cx="182.299" cy="168.964" r="15.3766" fill="url(#paint1_linear_585_3)"/>
<circle cx="182.299" cy="168.964" r="15.3766" fill="black" fill-opacity="0.2"/>
<circle cx="216.895" cy="196.668" r="19.2207" fill="url(#paint2_linear_585_3)"/>
<circle cx="216.895" cy="196.668" r="19.2207" fill="black" fill-opacity="0.2"/>
<path d="M6.89453 306.847V239.59H20.1838V295.135H48.6095V306.847H6.89453Z" fill="#565656"/>
<path d="M71.9896 239.59H88.2522L106.407 306.847H93.1174L80.0984 251.753L67.1244 306.847H53.8351L71.9896 239.59Z" fill="#565656"/>
<path d="M112.714 282.026V239.59H126.003V285.359C126.003 288.723 126.859 291.366 128.571 293.288C130.282 295.18 132.655 296.126 135.688 296.126C138.722 296.126 141.094 295.18 142.806 293.288C144.518 291.366 145.374 288.723 145.374 285.359V239.59H158.663V282.026C158.663 291.155 156.846 297.793 153.212 301.937C149.578 306.081 143.737 308.154 135.688 308.154C127.67 308.154 121.828 306.081 118.164 301.937C114.53 297.793 112.714 291.155 112.714 282.026Z" fill="#565656"/>
<path d="M146.887 239.59H161.167L179.907 288.467V239.59H191.62V306.847H177.43L158.599 257.97V259.324H146.887V239.59Z" fill="#565656"/>
<path d="M216.577 251.573V294.864H220.181C225.406 294.864 229.13 293.228 231.353 289.954C233.575 286.651 234.686 281.049 234.686 273.151C234.686 265.313 233.575 259.757 231.353 256.483C229.13 253.21 225.406 251.573 220.181 251.573H216.577ZM203.287 239.59H217.523C228.515 239.59 236.428 242.218 241.263 247.473C246.099 252.699 248.516 261.258 248.516 273.151C248.516 285.074 246.099 293.678 241.263 298.964C236.428 304.219 228.515 306.847 217.523 306.847H203.287V239.59Z" fill="#565656"/>
<path d="M289.06 275.088C290.381 275.358 291.522 275.989 292.483 276.98C293.475 277.941 294.676 279.833 296.087 282.656L308.25 306.847H293.655L285.546 289.864C285.306 289.383 284.99 288.723 284.6 287.882C282.227 282.806 279.434 280.269 276.221 280.269H271.986V306.847H258.697V239.59H277.888C286.537 239.59 292.739 241.121 296.493 244.185C300.277 247.248 302.169 252.233 302.169 259.141C302.169 263.766 301.043 267.445 298.79 270.178C296.538 272.911 293.294 274.547 289.06 275.088ZM271.986 250.762V269.097H278.248C281.882 269.097 284.48 268.391 286.042 266.979C287.633 265.538 288.429 263.18 288.429 259.907C288.429 256.633 287.648 254.291 286.087 252.879C284.525 251.468 281.912 250.762 278.248 250.762H271.986Z" fill="#565656"/>
<path d="M308.656 239.59H322.981L336.045 266.619L349.155 239.59H363.48L342.713 280.359V306.847H329.423V280.359L308.656 239.59Z" fill="#565656"/>
<path d="M258.697 351.214V317.109H265.436V345.275H279.85V351.214H258.697Z" fill="#565656"/>
<path d="M306.828 351.214H285.584V317.109H306.828V323.048H292.323V330.404H305.458V336.343H292.323V345.275H306.828V351.214Z" fill="#565656"/>
<path d="M321.585 336.252C318.189 334.957 315.89 333.602 314.687 332.186C313.483 330.754 312.882 328.835 312.882 326.429C312.882 323.338 313.872 320.909 315.852 319.142C317.831 317.375 320.55 316.492 324.007 316.492C325.575 316.492 327.144 316.675 328.712 317.04C330.281 317.391 331.834 317.916 333.372 318.617V325.196C331.926 324.175 330.456 323.399 328.964 322.866C327.471 322.332 325.994 322.066 324.532 322.066C322.903 322.066 321.654 322.393 320.786 323.048C319.918 323.703 319.484 324.64 319.484 325.858C319.484 326.802 319.796 327.586 320.42 328.211C321.06 328.82 322.385 329.498 324.395 330.244L327.296 331.34C330.037 332.346 332.055 333.678 333.35 335.338C334.644 336.998 335.291 339.092 335.291 341.62C335.291 345.062 334.271 347.635 332.23 349.341C330.205 351.031 327.136 351.877 323.024 351.877C321.334 351.877 319.636 351.671 317.93 351.26C316.24 350.864 314.603 350.27 313.019 349.478V342.511C314.816 343.79 316.552 344.742 318.227 345.366C319.918 345.991 321.585 346.303 323.23 346.303C324.89 346.303 326.177 345.93 327.091 345.184C328.004 344.422 328.461 343.364 328.461 342.008C328.461 340.988 328.157 340.097 327.547 339.336C326.938 338.559 326.055 337.95 324.898 337.508L321.585 336.252Z" fill="#565656"/>
<path d="M349.774 336.252C346.378 334.957 344.078 333.602 342.875 332.186C341.672 330.754 341.071 328.835 341.071 326.429C341.071 323.338 342.061 320.909 344.04 319.142C346.02 317.375 348.738 316.492 352.195 316.492C353.764 316.492 355.333 316.675 356.901 317.04C358.47 317.391 360.023 317.916 361.561 318.617V325.196C360.115 324.175 358.645 323.399 357.152 322.866C355.66 322.332 354.183 322.066 352.721 322.066C351.091 322.066 349.843 322.393 348.975 323.048C348.106 323.703 347.672 324.64 347.672 325.858C347.672 326.802 347.985 327.586 348.609 328.211C349.249 328.82 350.574 329.498 352.584 330.244L355.485 331.34C358.226 332.346 360.244 333.678 361.538 335.338C362.833 336.998 363.48 339.092 363.48 341.62C363.48 345.062 362.46 347.635 360.419 349.341C358.394 351.031 355.325 351.877 351.213 351.877C349.523 351.877 347.825 351.671 346.119 351.26C344.429 350.864 342.792 350.27 341.208 349.478V342.511C343.005 343.79 344.741 344.742 346.416 345.366C348.106 345.991 349.774 346.303 351.419 346.303C353.079 346.303 354.366 345.93 355.279 345.184C356.193 344.422 356.65 343.364 356.65 342.008C356.65 340.988 356.345 340.097 355.736 339.336C355.127 338.559 354.244 337.95 353.086 337.508L349.774 336.252Z" fill="#565656"/>
<defs>
<filter id="filter0_d_585_3" x="159.87" y="23.6602" width="46.0596" height="60.002" filterUnits="userSpaceOnUse" color-interpolation-filters="sRGB">
<feFlood flood-opacity="0" result="BackgroundImageFix"/>
<feColorMatrix in="SourceAlpha" type="matrix" values="0 0 0 0 0 0 0 0 0 0 0 0 0 0 0 0 0 0 127 0" result="hardAlpha"/>
<feOffset dy="4"/>
<feGaussianBlur stdDeviation="2"/>
<feComposite in2="hardAlpha" operator="out"/>
<feColorMatrix type="matrix" values="0 0 0 0 0 0 0 0 0 0 0 0 0 0 0 0 0 0 0.25 0"/>
<feBlend mode="normal" in2="BackgroundImageFix" result="effect1_dropShadow_585_3"/>
<feBlend mode="normal" in="SourceGraphic" in2="effect1_dropShadow_585_3" result="shape"/>
</filter>
<filter id="filter1_d_585_3" x="5.86719" y="71.1133" width="355.262" height="149.949" filterUnits="userSpaceOnUse" color-interpolation-filters="sRGB">
<feFlood flood-opacity="0" result="BackgroundImageFix"/>
<feColorMatrix in="SourceAlpha" type="matrix" values="0 0 0 0 0 0 0 0 0 0 0 0 0 0 0 0 0 0 127 0" result="hardAlpha"/>
<feOffset dy="4"/>
<feGaussianBlur stdDeviation="2"/>
<feComposite in2="hardAlpha" operator="out"/>
<feColorMatrix type="matrix" values="0 0 0 0 0 0 0 0 0 0 0 0 0 0 0 0 0 0 0.25 0"/>
<feBlend mode="normal" in2="BackgroundImageFix" result="effect1_dropShadow_585_3"/>
<feBlend mode="normal" in="SourceGraphic" in2="effect1_dropShadow_585_3" result="shape"/>
</filter>
<linearGradient id="paint0_linear_585_3" x1="154.107" y1="186.947" x2="154.107" y2="212.575" gradientUnits="userSpaceOnUse">
<stop stop-color="#5CE4D4"/>
<stop offset="1" stop-color="#276BAA"/>
</linearGradient>
<linearGradient id="paint1_linear_585_3" x1="182.299" y1="153.588" x2="182.299" y2="184.341" gradientUnits="userSpaceOnUse">
<stop stop-color="#5CE4D4"/>
<stop offset="1" stop-color="#276BAA"/>
</linearGradient>
<linearGradient id="paint2_linear_585_3" x1="216.895" y1="177.447" x2="216.895" y2="215.889" gradientUnits="userSpaceOnUse">
<stop stop-color="#5CE4D4"/>
<stop offset="1" stop-color="#276BAA"/>
</linearGradient>
</defs>
</svg>
