<svg width="356" height="205" viewBox="0 0 356 205" fill="none" xmlns="http://www.w3.org/2000/svg">
<g filter="url(#filter0_d_617_57)">
<path fill-rule="evenodd" clip-rule="evenodd" d="M176.273 42.6455L176.273 57.1182L178.273 57.1182L178.273 43.144C187.433 42.5892 194.668 34.9933 194.647 25.6868C194.624 16.0054 186.758 8.13892 177.076 8.11666C167.395 8.0944 159.565 15.9248 159.587 25.6062C159.588 26.1585 160.037 26.6073 160.589 26.6085C161.141 26.6098 161.588 26.1631 161.587 25.6108C161.567 17.0339 168.504 10.0969 177.081 10.1167C185.658 10.1364 192.627 17.1053 192.647 25.6822C192.666 34.2592 185.729 41.1961 177.152 41.1764C176.6 41.1752 176.153 41.6218 176.155 42.1741C176.155 42.3445 176.198 42.5049 176.273 42.6455Z" fill="#565656"/>
<path d="M176.273 57.1182L174.773 57.1182C174.773 57.9466 175.445 58.6182 176.273 58.6182L176.273 57.1182ZM176.273 42.6455L177.773 42.6455C177.773 42.398 177.712 42.1543 177.595 41.9361L176.273 42.6455ZM178.273 57.1182L178.273 58.6182C178.671 58.6182 179.053 58.4601 179.334 58.1788C179.615 57.8975 179.773 57.516 179.773 57.1182L178.273 57.1182ZM178.273 43.144L178.183 41.6467C177.391 41.6947 176.773 42.3508 176.773 43.144L178.273 43.144ZM194.647 25.6868L193.147 25.6903L194.647 25.6868ZM177.076 8.11666L177.073 9.61666L177.073 9.61666L177.076 8.11666ZM159.587 25.6062L158.087 25.6097L158.087 25.6097L159.587 25.6062ZM161.587 25.6108L163.087 25.6074L163.087 25.6074L161.587 25.6108ZM177.081 10.1167L177.084 8.61666L177.084 8.61666L177.081 10.1167ZM192.647 25.6822L191.147 25.6857L192.647 25.6822ZM177.152 41.1764L177.149 42.6764L177.149 42.6764L177.152 41.1764ZM176.155 42.1741L177.655 42.1707L177.655 42.1707L176.155 42.1741ZM177.773 57.1182L177.773 42.6455L174.773 42.6455L174.773 57.1182L177.773 57.1182ZM178.273 55.6182L176.273 55.6182L176.273 58.6182L178.273 58.6182L178.273 55.6182ZM176.773 43.144L176.773 57.1182L179.773 57.1182L179.773 43.144L176.773 43.144ZM193.147 25.6903C193.166 34.1975 186.554 41.1397 178.183 41.6467L178.364 44.6413C188.312 44.0387 196.17 35.789 196.147 25.6834L193.147 25.6903ZM177.073 9.61666C185.929 9.63702 193.126 16.8345 193.147 25.6903L196.147 25.6834C196.122 15.1762 187.587 6.64082 177.08 6.61667L177.073 9.61666ZM161.087 25.6028C161.066 16.7524 168.223 9.59631 177.073 9.61666L177.08 6.61667C166.567 6.59249 158.063 15.0971 158.087 25.6097L161.087 25.6028ZM160.593 25.1085C160.866 25.1092 161.086 25.3293 161.087 25.6028L158.087 25.6097C158.09 26.9877 159.208 28.1054 160.586 28.1085L160.593 25.1085ZM160.087 25.6143C160.086 25.3355 160.314 25.1079 160.593 25.1085L160.586 28.1085C161.969 28.1117 163.09 26.9908 163.087 25.6074L160.087 25.6143ZM177.084 8.61666C167.676 8.59503 160.065 16.2062 160.087 25.6143L163.087 25.6074C163.069 17.8616 169.332 11.5988 177.077 11.6167L177.084 8.61666ZM194.147 25.6788C194.125 16.2761 186.487 8.63828 177.084 8.61666L177.077 11.6167C184.829 11.6345 191.129 17.9345 191.147 25.6857L194.147 25.6788ZM177.149 42.6764C186.557 42.6981 194.168 35.0868 194.147 25.6788L191.147 25.6857C191.164 33.4315 184.902 39.6942 177.156 39.6764L177.149 42.6764ZM177.655 42.1707C177.655 42.4495 177.428 42.6771 177.149 42.6764L177.156 39.6764C175.772 39.6732 174.651 40.7942 174.655 42.1776L177.655 42.1707ZM177.595 41.9361C177.633 42.0069 177.654 42.0882 177.655 42.1707L174.655 42.1776C174.656 42.6007 174.763 43.003 174.952 43.3548L177.595 41.9361Z" fill="#565656"/>
</g>
<g filter="url(#filter1_d_617_57)">
<path fill-rule="evenodd" clip-rule="evenodd" d="M176.637 56.1136C181.793 55.8239 187.09 56.9822 191.897 59.7574L335.598 142.723C348.745 150.314 353.249 167.124 345.659 180.271C338.069 193.417 321.258 197.922 308.112 190.331L177.502 114.924L47.5093 189.975C34.3021 197.601 17.4142 193.076 9.78902 179.868C2.16388 166.661 6.68899 149.773 19.8961 142.148L162.501 59.8154C166.959 57.2412 171.837 56.0518 176.637 56.1136ZM199.524 68.7801L333.598 146.188C344.832 152.673 348.68 167.037 342.195 178.271C335.709 189.504 321.345 193.353 310.112 186.867L181.502 112.615L190.114 107.643C203.321 100.018 207.846 83.1297 200.221 69.9225C199.997 69.5342 199.764 69.1533 199.524 68.7801ZM173.502 112.615L45.5093 186.511C34.2153 193.032 19.7737 189.162 13.2531 177.868C6.73255 166.574 10.6021 152.133 21.8961 145.612L154.983 68.7747C154.765 69.1162 154.554 69.464 154.35 69.8181C146.759 82.9647 151.264 99.7751 164.41 107.365L173.502 112.615ZM177.502 110.305L166.41 103.901C155.177 97.4156 151.328 83.0515 157.814 71.8181C161.903 64.7343 169.126 60.587 176.721 60.116C184.728 60.2641 192.461 64.4822 196.757 71.9225C203.277 83.2165 199.408 97.6581 188.114 104.179L177.502 110.305Z" fill="#565656"/>
<path d="M190.614 108.509C203.631 100.993 208.509 84.7944 202.155 71.4534L333.098 147.054C343.853 153.263 347.538 167.016 341.329 177.771C335.119 188.526 321.367 192.211 310.612 186.001L183.502 112.615L190.614 108.509ZM192.397 58.8914C187.427 56.0221 181.949 54.82 176.615 55.1133C171.652 55.0553 166.609 56.289 162.001 58.9494L19.3961 141.282C5.7107 149.183 1.02171 166.683 8.92299 180.368C16.8243 194.054 34.3238 198.743 48.0093 190.841L177.502 116.079L307.612 191.197C321.237 199.064 338.659 194.396 346.525 180.771C354.391 167.146 349.723 149.724 336.098 141.857L192.397 58.8914ZM163.91 108.231L171.502 112.615L45.0093 185.645C34.1936 191.89 20.3636 188.184 14.1192 177.368C7.87471 166.553 11.5804 152.723 22.3961 146.478L152.375 71.4347C146.118 84.6985 150.982 100.767 163.91 108.231ZM177.502 109.15L166.91 103.035C156.155 96.8257 152.47 83.0732 158.68 72.3181C162.588 65.5492 169.483 61.5798 176.743 61.1166C184.399 61.2719 191.785 65.3108 195.891 72.4225C202.135 83.2382 198.429 97.0682 187.614 103.313L177.502 109.15Z" stroke="#565656" stroke-width="2"/>
</g>
<circle cx="148.324" cy="182.718" r="12.8138" fill="url(#paint0_linear_617_57)"/>
<circle cx="148.324" cy="182.718" r="12.8138" fill="black" fill-opacity="0.2"/>
<circle cx="176.516" cy="151.92" r="15.3766" fill="url(#paint1_linear_617_57)"/>
<circle cx="176.516" cy="151.92" r="15.3766" fill="black" fill-opacity="0.2"/>
<circle cx="211.111" cy="179.623" r="19.2207" fill="url(#paint2_linear_617_57)"/>
<circle cx="211.111" cy="179.623" r="19.2207" fill="black" fill-opacity="0.2"/>
<defs>
<filter id="filter0_d_617_57" x="154.087" y="6.61719" width="46.0596" height="60" filterUnits="userSpaceOnUse" color-interpolation-filters="sRGB">
<feFlood flood-opacity="0" result="BackgroundImageFix"/>
<feColorMatrix in="SourceAlpha" type="matrix" values="0 0 0 0 0 0 0 0 0 0 0 0 0 0 0 0 0 0 127 0" result="hardAlpha"/>
<feOffset dy="4"/>
<feGaussianBlur stdDeviation="2"/>
<feComposite in2="hardAlpha" operator="out"/>
<feColorMatrix type="matrix" values="0 0 0 0 0 0 0 0 0 0 0 0 0 0 0 0 0 0 0.25 0"/>
<feBlend mode="normal" in2="BackgroundImageFix" result="effect1_dropShadow_617_57"/>
<feBlend mode="normal" in="SourceGraphic" in2="effect1_dropShadow_617_57" result="shape"/>
</filter>
<filter id="filter1_d_617_57" x="0.0849609" y="54.0703" width="355.262" height="149.949" filterUnits="userSpaceOnUse" color-interpolation-filters="sRGB">
<feFlood flood-opacity="0" result="BackgroundImageFix"/>
<feColorMatrix in="SourceAlpha" type="matrix" values="0 0 0 0 0 0 0 0 0 0 0 0 0 0 0 0 0 0 127 0" result="hardAlpha"/>
<feOffset dy="4"/>
<feGaussianBlur stdDeviation="2"/>
<feComposite in2="hardAlpha" operator="out"/>
<feColorMatrix type="matrix" values="0 0 0 0 0 0 0 0 0 0 0 0 0 0 0 0 0 0 0.25 0"/>
<feBlend mode="normal" in2="BackgroundImageFix" result="effect1_dropShadow_617_57"/>
<feBlend mode="normal" in="SourceGraphic" in2="effect1_dropShadow_617_57" result="shape"/>
</filter>
<linearGradient id="paint0_linear_617_57" x1="148.324" y1="169.904" x2="148.324" y2="195.532" gradientUnits="userSpaceOnUse">
<stop stop-color="#5CE4D4"/>
<stop offset="1" stop-color="#276BAA"/>
</linearGradient>
<linearGradient id="paint1_linear_617_57" x1="176.516" y1="136.543" x2="176.516" y2="167.296" gradientUnits="userSpaceOnUse">
<stop stop-color="#5CE4D4"/>
<stop offset="1" stop-color="#276BAA"/>
</linearGradient>
<linearGradient id="paint2_linear_617_57" x1="211.111" y1="160.402" x2="211.111" y2="198.844" gradientUnits="userSpaceOnUse">
<stop stop-color="#5CE4D4"/>
<stop offset="1" stop-color="#276BAA"/>
</linearGradient>
</defs>
</svg>
