<svg width="358" height="113" viewBox="0 0 358 113" fill="none" xmlns="http://www.w3.org/2000/svg">
<path d="M0.949219 67.9801V0.722656H14.2385V56.2675H42.6641V67.9801H0.949219Z" fill="white"/>
<path d="M66.0443 0.722656H82.3068L100.461 67.9801H87.1721L74.1531 12.8858L61.1791 67.9801H47.8898L66.0443 0.722656Z" fill="white"/>
<path d="M106.768 43.1584V0.722656H120.057V46.492C120.057 49.8556 120.913 52.4984 122.625 54.4205C124.337 56.3125 126.71 57.2585 129.743 57.2585C132.776 57.2585 135.149 56.3125 136.861 54.4205C138.572 52.4984 139.428 49.8556 139.428 46.492V0.722656H152.718V43.1584C152.718 52.2882 150.901 58.9253 147.267 63.0698C143.633 67.2143 137.792 69.2865 129.743 69.2865C121.724 69.2865 115.883 67.2143 112.219 63.0698C108.585 58.9253 106.768 52.2882 106.768 43.1584Z" fill="white"/>
<path d="M140.941 0.722656H155.222L173.962 49.6003V0.722656H185.675V67.9801H171.484L152.654 19.1025V20.4573H140.941V0.722656Z" fill="white"/>
<path d="M210.631 12.7056V55.9972H214.235C219.461 55.9972 223.185 54.3604 225.407 51.0869C227.63 47.7833 228.741 42.1823 228.741 34.2838C228.741 26.4454 227.63 20.8894 225.407 17.6159C223.185 14.3423 219.461 12.7056 214.235 12.7056H210.631ZM197.342 0.722656H211.577C222.569 0.722656 230.483 3.35049 235.318 8.60615C240.153 13.8318 242.571 22.391 242.571 34.2838C242.571 46.2066 240.153 54.8109 235.318 60.0966C230.483 65.3523 222.569 67.9801 211.577 67.9801H197.342V0.722656Z" fill="white"/>
<path d="M283.114 36.2209C284.436 36.4912 285.577 37.1219 286.538 38.1129C287.529 39.074 288.731 40.966 290.142 43.789L302.305 67.9801H287.709L279.601 50.9968C279.36 50.5163 279.045 49.8556 278.655 49.0147C276.282 43.9392 273.489 41.4015 270.276 41.4015H266.041V67.9801H252.752V0.722656H271.942C280.592 0.722656 286.793 2.25431 290.547 5.31761C294.332 8.3809 296.224 13.3663 296.224 20.2737C296.224 24.8987 295.097 28.5777 292.845 31.3106C290.593 34.0435 287.349 35.6803 283.114 36.2209ZM266.041 11.8947V30.2294H272.303C275.937 30.2294 278.535 29.5237 280.096 28.1122C281.688 26.6706 282.484 24.3131 282.484 21.0395C282.484 17.766 281.703 15.4235 280.141 14.012C278.58 12.6004 275.967 11.8947 272.303 11.8947H266.041Z" fill="white"/>
<path d="M302.711 0.722656H317.036L330.1 27.7518L343.209 0.722656H357.535L336.767 41.4916V67.9801H323.478V41.4916L302.711 0.722656Z" fill="white"/>
<path d="M252.752 112.347V78.2418H259.491V106.408H273.905V112.347H252.752Z" fill="white"/>
<path d="M300.883 112.347H279.639V78.2418H300.883V84.1811H286.377V91.5367H299.512V97.4759H286.377V106.408H300.883V112.347Z" fill="white"/>
<path d="M315.64 97.3846C312.244 96.0901 309.944 94.7347 308.741 93.3184C307.538 91.8869 306.937 89.9681 306.937 87.5619C306.937 84.4704 307.926 82.0414 309.906 80.2748C311.886 78.5083 314.604 77.625 318.061 77.625C319.63 77.625 321.199 77.8077 322.767 78.1732C324.336 78.5235 325.889 79.0489 327.427 79.7494V86.3283C325.98 85.308 324.511 84.5313 323.018 83.9983C321.526 83.4653 320.049 83.1988 318.587 83.1988C316.957 83.1988 315.708 83.5262 314.84 84.1811C313.972 84.8359 313.538 85.7725 313.538 86.9908C313.538 87.935 313.851 88.7193 314.475 89.3437C315.115 89.9528 316.439 90.6305 318.45 91.3767L321.351 92.4732C324.092 93.4783 326.11 94.8109 327.404 96.4708C328.699 98.1308 329.346 100.225 329.346 102.753C329.346 106.195 328.326 108.768 326.285 110.474C324.26 112.164 321.191 113.009 317.079 113.009C315.389 113.009 313.691 112.804 311.985 112.393C310.295 111.997 308.657 111.403 307.074 110.611V103.644C308.871 104.923 310.607 105.875 312.282 106.499C313.972 107.123 315.64 107.436 317.285 107.436C318.945 107.436 320.231 107.063 321.145 106.316C322.059 105.555 322.516 104.496 322.516 103.141C322.516 102.121 322.211 101.23 321.602 100.468C320.993 99.6918 320.11 99.0826 318.952 98.641L315.64 97.3846Z" fill="white"/>
<path d="M343.829 97.3846C340.433 96.0901 338.133 94.7347 336.93 93.3184C335.727 91.8869 335.125 89.9681 335.125 87.5619C335.125 84.4704 336.115 82.0414 338.095 80.2748C340.075 78.5083 342.793 77.625 346.25 77.625C347.819 77.625 349.387 77.8077 350.956 78.1732C352.524 78.5235 354.078 79.0489 355.616 79.7494V86.3283C354.169 85.308 352.7 84.5313 351.207 83.9983C349.715 83.4653 348.238 83.1988 346.776 83.1988C345.146 83.1988 343.897 83.5262 343.029 84.1811C342.161 84.8359 341.727 85.7725 341.727 86.9908C341.727 87.935 342.039 88.7193 342.664 89.3437C343.303 89.9528 344.628 90.6305 346.638 91.3767L349.54 92.4732C352.281 93.4783 354.299 94.8109 355.593 96.4708C356.888 98.1308 357.535 100.225 357.535 102.753C357.535 106.195 356.514 108.768 354.474 110.474C352.448 112.164 349.38 113.009 345.268 113.009C343.577 113.009 341.879 112.804 340.174 112.393C338.483 111.997 336.846 111.403 335.262 110.611V103.644C337.059 104.923 338.796 105.875 340.471 106.499C342.161 107.123 343.829 107.436 345.473 107.436C347.133 107.436 348.42 107.063 349.334 106.316C350.248 105.555 350.705 104.496 350.705 103.141C350.705 102.121 350.4 101.23 349.791 100.468C349.182 99.6918 348.298 99.0826 347.141 98.641L343.829 97.3846Z" fill="white"/>
</svg>
