<svg width="356" height="199" viewBox="0 0 356 199" fill="none" xmlns="http://www.w3.org/2000/svg">
<g filter="url(#filter0_d_617_75)">
<path d="M176.8 37.023V51.4957H178.8V37.5215C187.96 36.9667 195.195 29.3708 195.173 20.0644C195.151 10.3829 187.285 2.51645 177.603 2.49419C167.922 2.47193 160.091 10.3023 160.114 19.9838C160.115 20.536 160.564 20.9848 161.116 20.9861C161.668 20.9873 162.115 20.5406 162.114 19.9884C162.094 11.4114 169.031 4.47446 177.608 4.49418C186.185 4.5139 193.154 11.4829 193.173 20.0598C193.193 28.6367 186.256 35.5737 177.679 35.554C177.127 35.5527 176.68 35.9994 176.682 36.5517C176.682 36.722 176.725 36.8825 176.8 37.023Z" fill="white"/>
<path fill-rule="evenodd" clip-rule="evenodd" d="M177.163 50.4913C182.32 50.2015 187.616 51.3599 192.423 54.135L336.125 137.101C349.271 144.691 353.776 161.502 346.185 174.648C338.595 187.795 321.785 192.299 308.638 184.709L178.029 109.302L48.0357 184.353C34.8285 191.978 17.9406 187.453 10.3154 174.246C2.69024 161.039 7.21536 144.151 20.4225 136.526L163.027 54.1931C167.486 51.6189 172.364 50.4295 177.163 50.4913ZM200.051 63.1578L334.125 140.565C345.358 147.051 349.207 161.415 342.721 172.648C336.236 183.882 321.872 187.731 310.638 181.245L182.029 106.992L190.64 102.02C203.847 94.3953 208.372 77.5073 200.747 64.3002C200.523 63.9118 200.291 63.531 200.051 63.1578ZM174.029 106.992L46.0357 180.889C34.7417 187.41 20.3001 183.54 13.7795 172.246C7.25891 160.952 11.1285 146.51 22.4225 139.99L155.509 63.1523C155.291 63.4938 155.08 63.8417 154.876 64.1958C147.286 77.3424 151.79 94.1528 164.937 101.743L174.029 106.992ZM178.029 104.683L166.937 98.2789C155.703 91.7933 151.854 77.4292 158.34 66.1958C162.43 59.1119 169.653 54.9647 177.248 54.4937C185.254 54.6418 192.987 58.8599 197.283 66.3002C203.804 77.5942 199.934 92.0357 188.64 98.5563L178.029 104.683Z" fill="white"/>
<path d="M48.5357 185.219L178.029 110.456L308.138 185.575C321.763 193.441 339.185 188.773 347.051 175.148C354.918 161.523 350.25 144.101 336.625 136.235L192.923 53.269C188.776 50.8749 184.276 49.6415 179.8 49.4691V38.4389C189.036 37.4081 196.195 29.5809 196.173 20.0621C196.15 9.8301 187.838 1.51771 177.606 1.49419C167.37 1.47066 159.09 9.7505 159.114 19.9861C159.116 21.0888 160.011 21.9835 161.114 21.9861C162.22 21.9886 163.116 21.0924 163.114 19.9861C163.095 11.9632 169.583 5.47574 177.606 5.49418C185.632 5.51263 192.155 12.0356 192.173 20.0621C192.192 28.0849 185.704 34.5724 177.682 34.554C176.575 34.5514 175.679 35.4476 175.682 36.554C175.682 36.79 175.724 37.0178 175.8 37.2294V49.5068C171.274 49.6665 166.72 50.906 162.527 53.327L19.9225 135.66C6.23706 143.561 1.54808 161.061 9.44936 174.746C17.3507 188.431 34.8502 193.12 48.5357 185.219ZM191.14 102.886C204.157 95.3711 209.035 79.1721 202.681 65.8311L333.625 141.431C344.38 147.641 348.065 161.393 341.855 172.148C335.646 182.903 321.893 186.588 311.138 180.379L184.029 106.992L191.14 102.886ZM164.437 102.609L172.029 106.992L45.5357 180.023C34.72 186.267 20.89 182.562 14.6455 171.746C8.40108 160.93 12.1068 147.1 22.9225 140.856L152.902 65.8124C146.644 79.0762 151.508 95.1447 164.437 102.609ZM178.029 103.528L167.437 97.4129C156.682 91.2034 152.997 77.4509 159.206 66.6958C163.114 59.9269 170.009 55.9575 177.269 55.4943C184.925 55.6495 192.311 59.6885 196.417 66.8002C202.662 77.6159 198.956 91.4459 188.14 97.6903L178.029 103.528Z" stroke="#FEFFFF" stroke-width="2"/>
</g>
<circle cx="148.85" cy="177.095" r="12.8138" fill="url(#paint0_linear_617_75)"/>
<circle cx="148.85" cy="177.095" r="12.8138" fill="black" fill-opacity="0.2"/>
<circle cx="177.043" cy="146.296" r="15.3766" fill="url(#paint1_linear_617_75)"/>
<circle cx="177.043" cy="146.296" r="15.3766" fill="black" fill-opacity="0.2"/>
<circle cx="211.638" cy="174.002" r="19.2207" fill="url(#paint2_linear_617_75)"/>
<circle cx="211.638" cy="174.002" r="19.2207" fill="black" fill-opacity="0.2"/>
<defs>
<filter id="filter0_d_617_75" x="0.61084" y="0.494141" width="355.262" height="197.902" filterUnits="userSpaceOnUse" color-interpolation-filters="sRGB">
<feFlood flood-opacity="0" result="BackgroundImageFix"/>
<feColorMatrix in="SourceAlpha" type="matrix" values="0 0 0 0 0 0 0 0 0 0 0 0 0 0 0 0 0 0 127 0" result="hardAlpha"/>
<feOffset dy="4"/>
<feGaussianBlur stdDeviation="2"/>
<feComposite in2="hardAlpha" operator="out"/>
<feColorMatrix type="matrix" values="0 0 0 0 0 0 0 0 0 0 0 0 0 0 0 0 0 0 0.25 0"/>
<feBlend mode="normal" in2="BackgroundImageFix" result="effect1_dropShadow_617_75"/>
<feBlend mode="normal" in="SourceGraphic" in2="effect1_dropShadow_617_75" result="shape"/>
</filter>
<linearGradient id="paint0_linear_617_75" x1="148.85" y1="164.281" x2="148.85" y2="189.909" gradientUnits="userSpaceOnUse">
<stop stop-color="#5CE4D4"/>
<stop offset="1" stop-color="#276BAA"/>
</linearGradient>
<linearGradient id="paint1_linear_617_75" x1="177.043" y1="130.92" x2="177.043" y2="161.673" gradientUnits="userSpaceOnUse">
<stop stop-color="#5CE4D4"/>
<stop offset="1" stop-color="#276BAA"/>
</linearGradient>
<linearGradient id="paint2_linear_617_75" x1="211.638" y1="154.781" x2="211.638" y2="193.223" gradientUnits="userSpaceOnUse">
<stop stop-color="#5CE4D4"/>
<stop offset="1" stop-color="#276BAA"/>
</linearGradient>
</defs>
</svg>
