<svg width="229" height="29" viewBox="0 0 229 29" fill="none" xmlns="http://www.w3.org/2000/svg">
<path d="M0.28418 27.9071V0.939453H5.61269V23.2108H17.0103V27.9071H0.28418Z" fill="#565656"/>
<path d="M26.3848 0.939453H32.9055L40.1848 27.9071H34.8563L29.6361 5.81639L24.4341 27.9071H19.1055L26.3848 0.939453Z" fill="#565656"/>
<path d="M42.7135 17.9545V0.939453H48.042V19.2912C48.042 20.6399 48.3852 21.6996 49.0716 22.4702C49.758 23.2289 50.7093 23.6082 51.9255 23.6082C53.1418 23.6082 54.0931 23.2289 54.7794 22.4702C55.4658 21.6996 55.809 20.6399 55.809 19.2912V0.939453H61.1375V17.9545C61.1375 21.6153 60.409 24.2765 58.9519 25.9383C57.4949 27.6 55.1527 28.4309 51.9255 28.4309C48.7104 28.4309 46.3682 27.6 44.8991 25.9383C43.4421 24.2765 42.7135 21.6153 42.7135 17.9545Z" fill="#565656"/>
<path d="M56.4157 0.939453H62.1416L69.6557 20.5375V0.939453H74.352V27.9071H68.6622L61.112 8.30905V8.85228H56.4157V0.939453Z" fill="#565656"/>
<path d="M84.3587 5.74414V23.1024H85.8037C87.899 23.1024 89.3922 22.4461 90.2833 21.1336C91.1744 19.809 91.6199 17.5632 91.6199 14.3962C91.6199 11.2533 91.1744 9.02554 90.2833 7.71298C89.3922 6.40042 87.899 5.74414 85.8037 5.74414H84.3587ZM79.0302 0.939453H84.738C89.1453 0.939453 92.3184 1.99311 94.2571 4.10043C96.1958 6.19571 97.1652 9.62763 97.1652 14.3962C97.1652 19.1768 96.1958 22.6268 94.2571 24.7461C92.3184 26.8535 89.1453 27.9071 84.738 27.9071H79.0302V0.939453Z" fill="#565656"/>
<path d="M113.422 15.1729C113.952 15.2813 114.409 15.5341 114.794 15.9315C115.192 16.3169 115.673 17.0755 116.239 18.2074L121.116 27.9071H115.264L112.013 21.0975C111.916 20.9048 111.79 20.6399 111.633 20.3027C110.682 18.2676 109.562 17.2501 108.274 17.2501H106.576V27.9071H101.247V0.939453H108.942C112.41 0.939453 114.897 1.55359 116.402 2.78185C117.919 4.01012 118.678 6.00906 118.678 8.77868C118.678 10.6331 118.226 12.1082 117.323 13.204C116.42 14.2999 115.12 14.9561 113.422 15.1729ZM106.576 5.41901V12.7705H109.087C110.544 12.7705 111.585 12.4876 112.211 11.9216C112.85 11.3436 113.169 10.3983 113.169 9.08574C113.169 7.77319 112.856 6.83392 112.23 6.26796C111.603 5.70199 110.556 5.41901 109.087 5.41901H106.576Z" fill="#565656"/>
<path d="M121.279 0.939453H127.023L132.261 11.7771L137.517 0.939453H143.261L134.934 17.2862V27.9071H129.606V17.2862L121.279 0.939453Z" fill="#565656"/>
<path d="M145.928 28.1767V1.15661H151.267V23.4712H162.686V28.1767H145.928Z" fill="#565656"/>
<path d="M184.06 28.1767H167.229V1.15661H184.06V5.86204H172.568V11.6895H182.974V16.395H172.568V23.4712H184.06V28.1767Z" fill="#565656"/>
<path d="M195.751 16.3226C193.061 15.297 191.239 14.2232 190.286 13.1012C189.332 11.967 188.856 10.4468 188.856 8.54052C188.856 6.09128 189.64 4.16688 191.208 2.76732C192.777 1.36775 194.931 0.667969 197.669 0.667969C198.912 0.667969 200.155 0.812751 201.398 1.10232C202.64 1.37982 203.871 1.79607 205.09 2.35107V7.56324C203.943 6.75487 202.779 6.13954 201.597 5.71726C200.414 5.29498 199.244 5.08384 198.086 5.08384C196.795 5.08384 195.805 5.34324 195.118 5.86204C194.43 6.38085 194.086 7.12286 194.086 8.08808C194.086 8.83612 194.333 9.45748 194.828 9.95215C195.335 10.4348 196.384 10.9717 197.977 11.5629L200.276 12.4316C202.447 13.2279 204.046 14.2836 205.071 15.5987C206.097 16.9138 206.61 18.5727 206.61 20.5756C206.61 23.3023 205.801 25.3413 204.185 26.6926C202.58 28.0319 200.149 28.7015 196.891 28.7015C195.552 28.7015 194.207 28.5386 192.855 28.2129C191.516 27.8992 190.219 27.4286 188.964 26.8012V21.2814C190.388 22.2949 191.763 23.0489 193.091 23.5436C194.43 24.0383 195.751 24.2856 197.054 24.2856C198.369 24.2856 199.389 23.99 200.113 23.3988C200.837 22.7956 201.198 21.957 201.198 20.8832C201.198 20.0749 200.957 19.3691 200.475 18.7658C199.992 18.1505 199.292 17.6679 198.375 17.318L195.751 16.3226Z" fill="#565656"/>
<path d="M218.084 16.3226C215.393 15.297 213.571 14.2232 212.618 13.1012C211.665 11.967 211.188 10.4468 211.188 8.54052C211.188 6.09128 211.973 4.16688 213.541 2.76732C215.11 1.36775 217.263 0.667969 220.002 0.667969C221.245 0.667969 222.488 0.812751 223.73 1.10232C224.973 1.37982 226.204 1.79607 227.422 2.35107V7.56324C226.276 6.75487 225.112 6.13954 223.929 5.71726C222.747 5.29498 221.577 5.08384 220.418 5.08384C219.127 5.08384 218.138 5.34324 217.45 5.86204C216.763 6.38085 216.419 7.12286 216.419 8.08808C216.419 8.83612 216.666 9.45748 217.161 9.95215C217.668 10.4348 218.717 10.9717 220.31 11.5629L222.608 12.4316C224.78 13.2279 226.379 14.2836 227.404 15.5987C228.43 16.9138 228.942 18.5727 228.942 20.5756C228.942 23.3023 228.134 25.3413 226.517 26.6926C224.913 28.0319 222.482 28.7015 219.224 28.7015C217.885 28.7015 216.539 28.5386 215.188 28.2129C213.849 27.8992 212.552 27.4286 211.297 26.8012V21.2814C212.721 22.2949 214.096 23.0489 215.423 23.5436C216.763 24.0383 218.084 24.2856 219.387 24.2856C220.702 24.2856 221.721 23.99 222.445 23.3988C223.169 22.7956 223.531 21.957 223.531 20.8832C223.531 20.0749 223.29 19.3691 222.807 18.7658C222.325 18.1505 221.625 17.6679 220.708 17.318L218.084 16.3226Z" fill="#565656"/>
</svg>
