<svg width="358" height="113" viewBox="0 0 358 113" fill="none" xmlns="http://www.w3.org/2000/svg">
<path d="M0.457031 67.3844V0.126953H13.7463V55.6718H42.172V67.3844H0.457031Z" fill="#565656"/>
<path d="M65.5521 0.126953H81.8147L99.9692 67.3844H86.6799L73.6609 12.2901L60.6869 67.3844H47.3976L65.5521 0.126953Z" fill="#565656"/>
<path d="M106.276 42.5627V0.126953H119.565V45.8962C119.565 49.2599 120.421 51.9027 122.133 53.8248C123.845 55.7168 126.217 56.6628 129.251 56.6628C132.284 56.6628 134.657 55.7168 136.368 53.8248C138.08 51.9027 138.936 49.2599 138.936 45.8962V0.126953H152.225V42.5627C152.225 51.6925 150.409 58.3296 146.775 62.4741C143.141 66.6186 137.299 68.6908 129.251 68.6908C121.232 68.6908 115.391 66.6186 111.727 62.4741C108.093 58.3296 106.276 51.6925 106.276 42.5627Z" fill="#565656"/>
<path d="M140.449 0.126953H154.73L173.47 49.0046V0.126953H185.182V67.3844H170.992L152.162 18.5067V19.8616H140.449V0.126953Z" fill="#565656"/>
<path d="M210.139 12.1099V55.4015H213.743C218.969 55.4015 222.693 53.7647 224.915 50.4912C227.138 47.1876 228.249 41.5866 228.249 33.6881C228.249 25.8497 227.138 20.2937 224.915 17.0201C222.693 13.7466 218.969 12.1099 213.743 12.1099H210.139ZM196.85 0.126953H211.085C222.077 0.126953 229.991 2.75478 234.826 8.01044C239.661 13.2361 242.079 21.7953 242.079 33.6881C242.079 45.6109 239.661 54.2152 234.826 59.5009C229.991 64.7566 222.077 67.3844 211.085 67.3844H196.85V0.126953Z" fill="#565656"/>
<path d="M282.622 35.6252C283.944 35.8955 285.085 36.5262 286.046 37.5172C287.037 38.4783 288.238 40.3703 289.65 43.1933L301.813 67.3844H287.217L279.109 50.4011C278.868 49.9206 278.553 49.2599 278.162 48.419C275.79 43.3435 272.997 40.8058 269.783 40.8058H265.549V67.3844H252.26V0.126953H271.45C280.1 0.126953 286.301 1.6586 290.055 4.7219C293.839 7.7852 295.731 12.7706 295.731 19.678C295.731 24.303 294.605 27.982 292.353 30.7149C290.1 33.4478 286.857 35.0846 282.622 35.6252ZM265.549 11.299V29.6337H271.811C275.445 29.6337 278.042 28.928 279.604 27.5165C281.196 26.0749 281.992 23.7174 281.992 20.4438C281.992 17.1703 281.211 14.8278 279.649 13.4163C278.087 12.0047 275.475 11.299 271.811 11.299H265.549Z" fill="#565656"/>
<path d="M302.218 0.126953H316.544L329.608 27.1561L342.717 0.126953H357.042L336.275 40.8959V67.3844H322.986V40.8959L302.218 0.126953Z" fill="#565656"/>
<path d="M252.26 111.751V77.6461H258.999V105.812H273.413V111.751H252.26Z" fill="#565656"/>
<path d="M300.391 111.751H279.146V77.6461H300.391V83.5854H285.885V90.941H299.02V96.8802H285.885V105.812H300.391V111.751Z" fill="#565656"/>
<path d="M315.148 96.7889C311.752 95.4944 309.452 94.139 308.249 92.7227C307.046 91.2912 306.444 89.3724 306.444 86.9662C306.444 83.8747 307.434 81.4457 309.414 79.6791C311.394 77.9126 314.112 77.0293 317.569 77.0293C319.138 77.0293 320.706 77.212 322.275 77.5775C323.843 77.9278 325.397 78.4532 326.935 79.1537V85.7326C325.488 84.7123 324.019 83.9356 322.526 83.4026C321.034 82.8696 319.557 82.6031 318.095 82.6031C316.465 82.6031 315.216 82.9305 314.348 83.5854C313.48 84.2402 313.046 85.1768 313.046 86.3951C313.046 87.3393 313.358 88.1236 313.983 88.748C314.622 89.3571 315.947 90.0348 317.957 90.781L320.859 91.8775C323.6 92.8826 325.618 94.2152 326.912 95.8751C328.207 97.5351 328.854 99.6291 328.854 102.157C328.854 105.599 327.833 108.173 325.793 109.878C323.767 111.569 320.699 112.414 316.587 112.414C314.896 112.414 313.198 112.208 311.493 111.797C309.802 111.401 308.165 110.807 306.581 110.015V103.048C308.378 104.327 310.115 105.279 311.79 105.903C313.48 106.528 315.148 106.84 316.792 106.84C318.452 106.84 319.739 106.467 320.653 105.721C321.567 104.959 322.024 103.901 322.024 102.545C322.024 101.525 321.719 100.634 321.11 99.8727C320.501 99.0961 319.617 98.4869 318.46 98.0453L315.148 96.7889Z" fill="#565656"/>
<path d="M343.337 96.7889C339.941 95.4944 337.641 94.139 336.438 92.7227C335.235 91.2912 334.633 89.3724 334.633 86.9662C334.633 83.8747 335.623 81.4457 337.603 79.6791C339.583 77.9126 342.301 77.0293 345.758 77.0293C347.327 77.0293 348.895 77.212 350.464 77.5775C352.032 77.9278 353.586 78.4532 355.124 79.1537V85.7326C353.677 84.7123 352.207 83.9356 350.715 83.4026C349.223 82.8696 347.745 82.6031 346.283 82.6031C344.654 82.6031 343.405 82.9305 342.537 83.5854C341.669 84.2402 341.235 85.1768 341.235 86.3951C341.235 87.3393 341.547 88.1236 342.172 88.748C342.811 89.3571 344.136 90.0348 346.146 90.781L349.047 91.8775C351.789 92.8826 353.806 94.2152 355.101 95.8751C356.395 97.5351 357.043 99.6291 357.043 102.157C357.043 105.599 356.022 108.173 353.982 109.878C351.956 111.569 348.888 112.414 344.776 112.414C343.085 112.414 341.387 112.208 339.682 111.797C337.991 111.401 336.354 110.807 334.77 110.015V103.048C336.567 104.327 338.303 105.279 339.979 105.903C341.669 106.528 343.337 106.84 344.981 106.84C346.641 106.84 347.928 106.467 348.842 105.721C349.756 104.959 350.212 103.901 350.212 102.545C350.212 101.525 349.908 100.634 349.299 99.8727C348.69 99.0961 347.806 98.4869 346.649 98.0453L343.337 96.7889Z" fill="#565656"/>
</svg>
